<svg width="40" height="40" viewBox="0 0 40 40" fill="none" xmlns="http://www.w3.org/2000/svg">
<path d="M0 5.85366C0 2.62077 2.62077 0 5.85366 0H34.1463C37.3792 0 40 2.62077 40 5.85366V34.1463C40 37.3792 37.3792 40 34.1463 40H5.85366C2.62077 40 0 37.3792 0 34.1463V5.85366Z" fill="#DDFF56"/>
<path d="M6.71094 26.9066V13.1004C6.71094 12.8703 6.89924 12.6823 7.12971 12.6823H11.8646C14.4204 12.6823 16.2013 14.5859 16.2013 16.8661C16.2013 17.8703 15.887 18.8324 15.1329 19.5854C15.0073 19.7107 15.0073 19.8782 15.1329 19.9619C16.0336 20.5686 16.369 21.7402 16.369 22.765C16.369 25.547 14.6513 27.3252 11.8646 27.3252H7.12971C6.89924 27.3252 6.71094 27.1367 6.71094 26.9071V26.9066ZM11.8646 18.3927C12.5977 18.3927 13.2474 17.7234 13.2474 16.9909C13.2474 16.2585 12.5977 15.6107 11.8646 15.6107H9.85316C9.72763 15.6107 9.64378 15.6944 9.64378 15.8198V18.1832C9.64378 18.309 9.72763 18.3927 9.85316 18.3927H11.8646V18.3927ZM11.8646 24.3964C12.7654 24.3964 13.3313 23.6017 13.3313 22.7645C13.3313 21.9273 12.7448 21.1537 11.8646 21.1537H9.85316C9.72763 21.1537 9.64378 21.2374 9.64378 21.3627V24.1868C9.64378 24.3122 9.72763 24.3959 9.85316 24.3959H11.8646V24.3964Z" fill="#1F2600"/>
<path d="M31.0113 12.8679H32.8362C33.0669 12.8679 33.2555 13.0563 33.2555 13.2864V18.3902C33.2555 18.5782 33.0876 18.725 32.9201 18.725H18.7826C18.5518 18.725 18.3633 18.537 18.3633 18.3069V13.2869C18.3633 13.0568 18.5523 12.8688 18.7826 12.8688H20.6703C20.901 12.8688 21.0896 13.0568 21.0896 13.2869V15.7969C21.0896 15.9223 21.1735 16.006 21.2992 16.006H30.3819C30.5076 16.006 30.5915 15.9223 30.5915 15.7969V13.2869C30.5915 13.0568 30.7805 12.8683 31.0108 12.8683L31.0113 12.8679Z" fill="#1F2600"/>
<path d="M31.0113 21.4672H32.8362C33.0669 21.4672 33.2555 21.6556 33.2555 21.8857V26.9895C33.2555 27.1775 33.0876 27.3243 32.9201 27.3243H18.7826C18.5518 27.3243 18.3633 27.1363 18.3633 26.9062V21.8862C18.3633 21.6561 18.5523 21.4681 18.7826 21.4681H20.6703C20.901 21.4681 21.0896 21.6561 21.0896 21.8862V24.3962C21.0896 24.5216 21.1735 24.6053 21.2992 24.6053H30.3819C30.5076 24.6053 30.5915 24.5216 30.5915 24.3962V21.8862C30.5915 21.6561 30.7805 21.4676 31.0108 21.4676L31.0113 21.4672Z" fill="#1F2600"/>
</svg>
